<svg enable-background="new 0 0 100 100" viewBox="0 0 100 100" xmlns="http://www.w3.org/2000/svg"><path d="m91.7 10h-83.4c-4.5 0-8.3 3.8-8.3 8.3v63.3c0 4.6 3.8 8.4 8.3 8.4h83.3c4.6 0 8.3-3.8 8.3-8.3v-63.4c.1-4.5-3.7-8.3-8.2-8.3zm1.6 71.7c0 .9-.8 1.7-1.7 1.7h-83.3c-.9 0-1.7-.8-1.7-1.7v-63.4c0-.9.8-1.7 1.7-1.7h83.3c.9 0 1.7.8 1.7 1.7z"/><path d="m35.6 29.1h-14c-1.4 0-2.5 1.1-2.5 2.5v.2.2 14c0 1.4 1.1 2.5 2.5 2.5s2.5-1.1 2.5-2.5v-12h11.5c1.4 0 2.5-1.1 2.5-2.5s-1.1-2.4-2.5-2.4z"/><path d="m80.8 53.9c0-1.4-1.1-2.5-2.5-2.5s-2.5 1.1-2.5 2.5v12h-11.5c-1.4 0-2.5 1.1-2.5 2.5s1.1 2.5 2.5 2.5h14c1.4 0 2.5-1.1 2.5-2.5 0-.1 0-.2 0-.2 0-.1 0-.2 0-.2z"/></svg>